<?xml version="1.0" encoding="UTF-8"?><svg id="uuid-c68dee36-8a5d-4437-b8bb-f585f11c72e7" xmlns="http://www.w3.org/2000/svg" viewBox="0 0 228.49 59.22"><polygon points="42.18 59.03 42.18 52.21 38.94 55.83 35.69 52.21 35.69 59.03 32.72 59.03 32.72 48.2 35.69 48.2 38.94 51.99 42.18 48.2 45.15 48.2 45.15 59.03 42.18 59.03" style="fill:#e84924;"/><path d="M57.09,50.63c-1.83,0-2.78,1.56-2.78,2.99s.95,2.99,2.78,2.99,2.78-1.56,2.78-2.99-.95-2.99-2.78-2.99M57.09,59.22c-3.05,0-5.86-2.42-5.86-5.6s2.8-5.6,5.86-5.6,5.86,2.42,5.86,5.6-2.8,5.6-5.86,5.6" style="fill:#e84924;"/><polygon points="73.48 50.73 73.48 59.03 70.51 59.03 70.51 50.73 67.35 50.73 67.35 48.2 76.64 48.2 76.64 50.73 73.48 50.73" style="fill:#e84924;"/><path d="M86.61,50.63c-1.83,0-2.78,1.56-2.78,2.99s.95,2.99,2.78,2.99,2.78-1.56,2.78-2.99-.95-2.99-2.78-2.99M86.61,59.22c-3.05,0-5.86-2.42-5.86-5.6s2.8-5.6,5.86-5.6,5.86,2.42,5.86,5.6-2.8,5.6-5.86,5.6" style="fill:#e84924;"/><path d="M102.95,50.63h-1.43v2.23h1.39c.8,0,1.24-.48,1.24-1.14,0-.74-.46-1.1-1.2-1.1M105.12,59.03l-2.61-3.73h-.99v3.73h-2.97v-10.83h5.06c2.72,0,3.58,2.02,3.58,3.52,0,1.03-.53,2.15-1.67,2.84l3.46,4.47h-3.86Z" style="fill:#e84924;"/><path d="M119.3,59.22c-3.92,0-6.07-2.86-6.07-5.6,0-2.89,2.36-5.6,6.05-5.6,1.43,0,2.67.29,3.83.8v2.76c-1.33-.76-2.46-.95-3.6-.95-2.11,0-3.2,1.47-3.2,2.99,0,1.62,1.22,2.99,3.39,2.99,1.33,0,2.61-.53,3.41-1.2v2.89c-1.26.67-2.7.93-3.81.93" style="fill:#e84924;"/><polygon points="134.99 54.29 134.99 59.03 132.02 59.03 132.02 54.29 127.64 48.2 131.2 48.2 133.5 51.51 135.81 48.2 139.37 48.2 134.99 54.29" style="fill:#e84924;"/><path d="M149.46,59.22c-3.92,0-6.07-2.86-6.07-5.6,0-2.89,2.36-5.6,6.05-5.6,1.43,0,2.67.29,3.83.8v2.76c-1.33-.76-2.46-.95-3.6-.95-2.11,0-3.2,1.47-3.2,2.99,0,1.62,1.22,2.99,3.39,2.99,1.33,0,2.61-.53,3.41-1.2v2.89c-1.26.67-2.7.93-3.81.93" style="fill:#e84924;"/><polygon points="159.28 59.03 159.28 48.2 162.25 48.2 162.25 56.5 167.07 56.5 167.07 59.03 159.28 59.03" style="fill:#e84924;"/><polygon points="172.38 59.03 172.38 48.2 180.33 48.2 180.33 50.58 175.35 50.58 175.35 52.31 179.19 52.31 179.19 54.69 175.35 54.69 175.35 56.65 180.33 56.65 180.33 59.03 172.38 59.03" style="fill:#e84924;"/><path d="M189.95,59.22c-2.76,0-3.94-1.41-4.65-2.72l2.27-1.24c.38.74,1.07,1.64,2.63,1.64.93,0,1.37-.44,1.37-.91,0-1.56-5.71-.97-5.71-4.74,0-1.73,1.54-3.24,4.13-3.24,1.62,0,3.05.61,3.98,1.87l-2.06,1.5c-.42-.74-1.24-1.14-2.02-1.14-.97,0-1.18.51-1.18.74,0,1.52,5.71,1.12,5.71,4.61,0,1.69-1.26,3.62-4.47,3.62" style="fill:#e84924;"/><polygon points="133.61 18.69 133.61 17.67 129.3 17.67 129.3 22.97 133.61 22.97 133.61 21.96 130.32 21.96 130.32 20.74 133.03 20.74 133.03 19.72 130.32 19.72 130.32 18.69 133.61 18.69"/><polygon points="117.02 5.65 115.92 5.65 112.72 1.57 112.72 5.6 111.7 5.6 111.7 0 112.77 0 116 4.11 116 .03 117.02 .03 117.02 5.65"/><path d="M114.62,40.77c-.92,0-1.97-.36-2.79-1.27l.76-.68c.85.96,2.03,1.09,2.77.81.14-.05.61-.26.61-.65s-.37-.52-1.43-.74c-.95-.2-2.24-.47-2.24-1.75,0-.62.34-1.14.94-1.41,1.02-.46,2.59-.15,3.57.71l-.67.76c-.75-.66-1.89-.81-2.48-.54-.31.14-.35.33-.35.48,0,.39.38.53,1.44.75.94.2,2.23.47,2.23,1.74,0,.7-.47,1.3-1.26,1.6-.32.12-.7.19-1.11.19"/><polygon points="98.58 21.55 97.34 17.48 96.48 17.48 95.17 21.55 93.85 17.47 92.78 17.47 94.62 23.18 95.71 23.18 96.89 19.51 98.01 23.18 99.1 23.18 101.06 17.47 99.98 17.47 98.58 21.55"/><polygon points="222.41 5.95 222.41 23.27 208.35 9.2 208.35 5.95 202.27 5.95 202.27 34.3 208.35 34.3 208.35 17.8 222.41 31.86 222.41 34.3 228.49 34.3 228.49 5.95 222.41 5.95"/><path d="M17.2,26.36c-.03.18-.07.34-.12.5-.44,1.35-1.77,2.25-3.59,2.25h-7.41v-6.59h6.9c2.74,0,4.26,1.35,4.26,3.34,0,.17-.03.34-.05.5M15.64,14.63c-.03.19-.07.38-.12.55-.42,1.39-1.7,2.14-3.55,2.14h-5.89v-6.21h5.81c2.62,0,3.8,1.35,3.8,3,0,.18-.02.35-.05.51M19.49,19.97c-.27-.14-.54-.27-.82-.38-.39-.16-.79-.28-1.18-.37,2.02-.85,3.86-2.79,4.02-5.43,0-.12.03-.24.03-.36,0-3.67-2.75-7.51-9.04-7.51H0v28.38h14.54c4.33,0,8.53-2.66,8.8-7.76,0-.17.03-.34.03-.52,0-2.82-1.81-4.94-3.88-6.05"/><path d="M48.53,15.38c-.02.17-.06.33-.11.5-.37,1.33-1.53,2.34-3.86,2.34h-5.76v-6.63h5.85c2.53,0,3.93,1.27,3.93,3.25,0,.18-.02.37-.04.54M50.14,22.1c2.4-1.38,4.35-3.64,4.49-7,0-.13.03-.25.03-.39,0-2.7-1.52-8.78-9.42-8.78h-12.52v28.38h6.08v-10.64h5.38l7.52,10.64h7.64l-9.21-12.2Z"/><polygon points="138.1 11.58 146.21 11.58 146.21 34.3 152.29 34.3 152.29 11.58 160.4 11.58 160.4 5.92 138.1 5.92 138.1 11.58"/><polygon points="68.01 5.92 68.01 11.58 76.12 11.58 76.12 28.64 68.01 28.64 68.01 34.3 90.31 34.3 90.31 28.64 82.2 28.64 82.2 11.58 90.31 11.58 90.31 5.92 68.01 5.92"/><polygon points="124.15 6.08 114.25 15.99 104.34 6.08 100.04 10.38 109.95 20.29 100.04 30.19 104.34 34.49 114.25 24.59 124.15 34.49 128.45 30.19 118.55 20.29 128.45 10.38 124.15 6.08"/><path d="M188.39,20.62c-.01.17-.02.34-.04.51-.5,4.2-4.09,7.47-8.42,7.47s-7.92-3.27-8.42-7.47c-.02-.17-.03-.34-.04-.51-.01-.17-.03-.34-.03-.51,0-4.68,3.81-8.49,8.49-8.49s8.49,3.81,8.49,8.49c0,.17-.01.34-.03.51M179.92,5.33c-8.16,0-14.78,6.62-14.78,14.78,0,.17.02.34.02.51.27,7.93,6.76,14.27,14.76,14.27s14.48-6.35,14.76-14.27c0-.17.02-.34.02-.51,0-8.16-6.62-14.78-14.78-14.78"/></svg>