<svg width="238" height="49" viewBox="0 0 238 49" fill="none" xmlns="http://www.w3.org/2000/svg">
<path d="M213.278 4.23801L224.7 20.064L226.536 23.005V4.23801H237.191V40.682H227.929L216.073 24.448L214.673 22.158V40.682H204.016V4.23801H213.278Z" fill="black"/>
<path d="M159.823 40.682H147.594L143.477 32.862L136.454 33.054V40.682H125.8V4.23801H143.18C146.75 4.34841 150.219 5.4449 153.204 7.40601C160.746 12.764 160.514 24.544 153.068 29.841L159.828 40.677L159.823 40.682ZM136.455 23.974H142.691C145.516 23.974 147.701 20.781 147.458 18.117C147.266 16.003 145.193 13.317 142.933 13.317H136.455V23.974Z" fill="black"/>
<path d="M180.502 3.668C193.286 3.396 202.584 13.485 200.223 26.294C196.606 45.939 166.498 46.519 162.058 27C159.233 14.569 167.895 3.935 180.497 3.667L180.502 3.668ZM180.502 13.354C169.787 14.166 170.241 31.738 181.052 31.677C192.681 31.611 191.964 12.486 180.502 13.354Z" fill="black"/>
<path d="M68.868 3.668C82.247 3.38 91.933 14.59 88.296 27.818C83.327 45.918 55.428 45.869 50.646 27.631C47.356 15.094 56.054 3.94 68.868 3.668ZM68.868 13.354C58.324 14.176 58.568 31.738 69.539 31.677C81.031 31.617 80.461 12.451 68.868 13.354Z" fill="black"/>
<path d="M0 40.682L17.254 0L31.844 34.558L25.85 48.552L17.314 28.452L11.926 40.682H0Z" fill="black"/>
<path d="M122.895 4.23801V13.319H111.513V40.682H100.858V13.319H89.358V4.23801H122.895Z" fill="black"/>
<path d="M39.775 40.682L28.479 14.206C30.529 9.68099 32.207 4.84299 34.329 0.362993C34.395 0.221993 34.314 0.0629933 34.566 0.120993L51.701 40.682H39.775Z" fill="black"/>
</svg>
