<svg xmlns="http://www.w3.org/2000/svg" xmlns:xlink="http://www.w3.org/1999/xlink" width="300" height="300" viewBox="0 0 300 300">
  <defs>
    <clipPath id="clip-motron-logo">
      <rect width="300" height="300"/>
    </clipPath>
  </defs>
  <g id="motron-logo" clip-path="url(#clip-motron-logo)">
    <g id="Layer_1" data-name="Layer 1" transform="translate(31.404 125.724)">
      <g id="Group_363" data-name="Group 363">
        <path id="Path_4875" data-name="Path 4875" d="M413.662,8.4l11.422,15.826,1.836,2.941V8.4h10.655V44.844h-9.262L416.457,28.61l-1.4-2.29V44.844H404.4V8.4Z" transform="translate(-200.384 -4.162)"/>
        <path id="Path_4876" data-name="Path 4876" d="M283.383,44.844H271.154l-4.117-7.82-7.023.192v7.628H249.36V8.4h17.38a19.344,19.344,0,0,1,10.024,3.168c7.542,5.358,7.31,17.138-.136,22.435l6.76,10.836ZM260.015,28.136h6.236c2.825,0,5.01-3.193,4.767-5.857-.192-2.114-2.265-4.8-4.525-4.8h-6.478Z" transform="translate(-123.56 -4.162)"/>
        <path id="Path_4877" data-name="Path 4877" d="M339.148,7.265c12.784-.272,22.082,9.817,19.721,22.626-3.617,19.645-33.725,20.225-38.165.706-2.825-12.431,5.837-23.065,18.439-23.333Zm0,9.686c-10.715.812-10.261,18.384.55,18.323,11.629-.066,10.912-19.191-.55-18.323Z" transform="translate(-158.646 -3.597)"/>
        <path id="Path_4878" data-name="Path 4878" d="M117.926,7.265c13.379-.288,23.065,10.922,19.428,24.15-4.969,18.1-32.868,18.051-37.65-.187C96.414,18.691,105.112,7.537,117.926,7.265Zm0,9.686c-10.544.822-10.3,18.384.671,18.323C130.089,35.214,129.519,16.048,117.926,16.951Z" transform="translate(-49.058 -3.597)"/>
        <path id="Path_4879" data-name="Path 4879" d="M0,40.682,17.254,0l14.59,34.558L25.85,48.552l-8.536-20.1L11.926,40.682Z"/>
        <path id="Path_4880" data-name="Path 4880" d="M210.659,8.4v9.081H199.277V44.844H188.622V17.481h-11.5V8.4Z" transform="translate(-87.764 -4.162)"/>
        <path id="Path_4881" data-name="Path 4881" d="M67.746,40.79,56.45,14.314C58.5,9.789,60.178,4.951,62.3.471c.066-.141-.015-.3.237-.242L79.672,40.79Z" transform="translate(-27.971 -0.108)"/>
      </g>
    </g>
  </g>
</svg>
