<svg xmlns="http://www.w3.org/2000/svg" width="88" height="32" shape-rendering="geometricPrecision" viewBox="0 0 88 32"><g fill="#000" data-name="Group 170"><path d="M.058 23.091a1.44 1.44 0 0 0 .692.887 4 4 0 0 0 .753.315 5.6 5.6 0 0 0 1.7.151 6.55 6.55 0 0 0 2.529-.565 8.5 8.5 0 0 0 2.9-2.189 15 15 0 0 0 2.4-3.726 18.1 18.1 0 0 1 3.794-5.223 1 1 0 0 1 .116-.089.7.7 0 0 1-.087.257 16 16 0 0 0-1.572 4.761 1.1 1.1 0 0 1-.173.438 21 21 0 0 0-1.262 2.181 12 12 0 0 0-1.021 2.657 2.6 2.6 0 0 0-.082 1.115.654.654 0 0 0 1 .488 1.2 1.2 0 0 0 .5-.444 7 7 0 0 0 .435-.773 9.8 9.8 0 0 0 .585-1.822 29 29 0 0 0 .531-3.213.7.7 0 0 1 .1-.288 16 16 0 0 1 1.636-2.076 17 17 0 0 1 4.829-3.434.5.5 0 0 1 .1-.03c-.245.288-.513.542-.771.805a28 28 0 0 0-3.394 4.083 11.6 11.6 0 0 0-1.647 3.657 5.2 5.2 0 0 0-.169 1.993 1.81 1.81 0 0 0 1.444 1.606 2.9 2.9 0 0 0 1.248-.014 4.6 4.6 0 0 0 1.572-.716 10.8 10.8 0 0 0 1.544-1.269c.052-.05.087-.138.2-.118 0 .082-.005.162 0 .241a1.97 1.97 0 0 0 1.234 1.824 3.06 3.06 0 0 0 1.756.187 3.5 3.5 0 0 0 1.886-1.009c.249-.246.462-.53.687-.8.059-.07.1-.128.213-.116a2.93 2.93 0 0 0 1.613-.322l.241-.117c-.023.12-.048.212-.057.3a5.5 5.5 0 0 0-.063.737 1.364 1.364 0 0 0 1.047 1.37 2.2 2.2 0 0 0 .622.051 4 4 0 0 0 1.561-.474 9.1 9.1 0 0 0 2.263-1.627l.19-.178a.3.3 0 0 1 .024.048l.038.309a1.93 1.93 0 0 0 1.408 1.714 3.17 3.17 0 0 0 2.718-.325 4.7 4.7 0 0 0 1.412-1.36l.154-.214a8 8 0 0 0 .951-.006 3 3 0 0 0 1.559-.768 6.1 6.1 0 0 0 1.138-1.36.28.28 0 0 1 .272-.145 9.4 9.4 0 0 0 2.23-.255c.048-.011.1-.014.182-.024-.066.094-.111.158-.155.224-.328.494-.675.976-.976 1.485a4.3 4.3 0 0 0-.6 1.758.958.958 0 0 0 1.1 1.1 2.8 2.8 0 0 0 .566-.115 3.8 3.8 0 0 0 1.157-.637 7.8 7.8 0 0 0 1.341-1.343c.046-.057.075-.139.174-.157v.347a1.754 1.754 0 0 0 1.733 1.843 3.57 3.57 0 0 0 2.576-.77 13 13 0 0 0 1.219-1.126 29 29 0 0 0 2.2-2.648 3 3 0 0 1 .531-.551 1.2 1.2 0 0 1 1-.23c.223.042.283.124.265.349a.5.5 0 0 1-.022.118 9 9 0 0 1-.342.891c-.181.356-.407.689-.617 1.03a7 7 0 0 0-.76 1.52 2.6 2.6 0 0 0-.124.654.806.806 0 0 0 .7.87 1.3 1.3 0 0 0 .238.032 2.7 2.7 0 0 0 1.28-.3l.221-.1c-.086.178-.29.59-.588 1.134-.461.151-.922.287-1.372.419a13.7 13.7 0 0 0-2.868 1.063c-1.935 1.108-3.562 2.879-2.835 4.337a1.14 1.14 0 0 0 .965.627q.081.008.166.008c1.22 0 3.072-1.188 4.314-2.792a26 26 0 0 0 2.06-3.162 9.2 9.2 0 0 0 4.691-3.133 1.873 1.873 0 0 0 1.859 1.767 3.3 3.3 0 0 0 1.766-.4 8.6 8.6 0 0 0 1.937-1.383l.2-.183c-.01.132-.022.2-.021.273a5 5 0 0 0 .021.714 1.2 1.2 0 0 0 1.075 1.043 1.9 1.9 0 0 0 .719-.045 4 4 0 0 0 1.212-.524 10.6 10.6 0 0 0 1.807-1.439c.059-.056.1-.14.207-.146l.011.1c.002.027 0 .063.007.1a1.8 1.8 0 0 0 1.217 1.661c.037.015.073.033.111.046a3.96 3.96 0 0 0 2.769.014 5.6 5.6 0 0 0 1.96-1.2 14.5 14.5 0 0 0 3.02-3.687.4.4 0 0 1 .052-.057 1 1 0 0 1 .114.092 6.3 6.3 0 0 1 .943 1.09 3.5 3.5 0 0 1 .476.991 2.2 2.2 0 0 1 .05.936c-.2.012-.381.029-.566.035a1.87 1.87 0 0 0-1.412.679 1.23 1.23 0 0 0-.285.548.7.7 0 0 0 .552.888 1.7 1.7 0 0 0 .931-.035 1.84 1.84 0 0 0 1.183-1.181c.052-.132.091-.27.134-.4a1 1 0 0 1 .076-.029q.07-.018.141-.033a5.7 5.7 0 0 0 1.64-.627 3.3 3.3 0 0 0 .934-.789.6.6 0 0 0 .109-.157.35.35 0 0 0-.03-.363.255.255 0 0 0-.308-.069.7.7 0 0 0-.181.15 7 7 0 0 1-.592.559 4.3 4.3 0 0 1-1.607.694 1 1 0 0 1-.1 0v-.132a2.9 2.9 0 0 0-.368-1.519 6.6 6.6 0 0 0-1.72-2.021.3.3 0 0 0-.512.113c-.081.156-.153.317-.24.47a13.7 13.7 0 0 1-3.2 3.723 4.15 4.15 0 0 1-2.156.958 3.13 3.13 0 0 1-1.876-.316 1.13 1.13 0 0 1-.649-.969 1.16 1.16 0 0 1 .011-.556c.021 0 .031 0 .037.008a1 1 0 0 1 .058.042 2.14 2.14 0 0 0 1.523.507 4.27 4.27 0 0 0 2.31-.756 2.46 2.46 0 0 0 1.091-1.764 1.264 1.264 0 0 0-1.073-1.53 2.4 2.4 0 0 0-.913-.008 5.3 5.3 0 0 0-1.822.683 3.6 3.6 0 0 0-1.63 1.863.7.7 0 0 1-.152.239c-.468.462-.929.933-1.418 1.372a5.7 5.7 0 0 1-1.573 1.017 1.9 1.9 0 0 1-.795.183.656.656 0 0 1-.724-.646 1.9 1.9 0 0 1 .068-.807c.255-.756.494-1.52.775-2.267.207-.553.468-1.086.709-1.627.037-.084.068-.162.194-.18a13.5 13.5 0 0 0 2.568-.666 10.2 10.2 0 0 0 2.657-1.353 5.13 5.13 0 0 0 1.809-2.318 2.5 2.5 0 0 0 .19-.957 1.254 1.254 0 0 0-.9-1.229 2.5 2.5 0 0 0-1.2-.072 3.67 3.67 0 0 0-1.953.932 12.2 12.2 0 0 0-1.713 1.917 24.3 24.3 0 0 0-3.206 6.073 1.8 1.8 0 0 1-.247.461 8 8 0 0 1-1.574 1.583 6.2 6.2 0 0 1-1.688.968 2.13 2.13 0 0 1-1.354.032 1.13 1.13 0 0 1-.811-.814 2.2 2.2 0 0 1-.007-1.231 3.69 3.69 0 0 1 2.563-2.552 1.6 1.6 0 0 1 .574-.051.457.457 0 0 1 .49.483 3 3 0 0 1-.032.4.29.29 0 0 0 .237.338.286.286 0 0 0 .338-.237 2.4 2.4 0 0 0 .035-.664 1.015 1.015 0 0 0-.969-.91 2.3 2.3 0 0 0-1.069.136 4.54 4.54 0 0 0-2.479 2.172s-.046.086-.1.225a7.55 7.55 0 0 1-4.493 3.933c.178-.345.289-.578.323-.649.1-.18.19-.333.28-.513.846-1.7 1.707-3.387 2.666-5.025a.7.7 0 0 0 .061-.129.291.291 0 0 0-.506-.27 1.4 1.4 0 0 0-.127.2q-.968 1.782-1.934 3.566a3.9 3.9 0 0 1-.882 1.132 2.7 2.7 0 0 1-1.134.615 1.26 1.26 0 0 1-.645.036c-.156-.041-.208-.09-.211-.246a1.1 1.1 0 0 1 .04-.354 4 4 0 0 1 .25-.648c.227-.423.471-.837.721-1.246a7.3 7.3 0 0 0 .711-1.385 2 2 0 0 0 .132-.775.75.75 0 0 0-.558-.728 1.8 1.8 0 0 0-1.406.127 2.5 2.5 0 0 0-.844.738c-.529.677-1.056 1.353-1.6 2.015a12.4 12.4 0 0 1-1.623 1.642 3.2 3.2 0 0 1-1.393.686 2.47 2.47 0 0 1-1.315-.027 1.03 1.03 0 0 1-.739-.812 2 2 0 0 1-.028-.547 4.9 4.9 0 0 1 .651-2.015 3.4 3.4 0 0 1 .838-.985 2.4 2.4 0 0 1 .893-.462 1.4 1.4 0 0 1 .947.051.5.5 0 0 1 .337.613 3 3 0 0 1-.093.322.29.29 0 0 0 .164.4.282.282 0 0 0 .386-.185 2.1 2.1 0 0 0 .143-.553 1.06 1.06 0 0 0-.662-1.118 1.9 1.9 0 0 0-1.11-.148 2.98 2.98 0 0 0-1.626.837 4.5 4.5 0 0 0-1.01 1.479c-.028.064-.062.165-.109.174-.225.047-.295.236-.4.392a8.5 8.5 0 0 1-1.749 2.006 3.2 3.2 0 0 1-1.083.617 2 2 0 0 1-.521.082.312.312 0 0 1-.343-.323 1.4 1.4 0 0 1 .029-.381 4.5 4.5 0 0 1 .576-1.441c.25-.391.506-.779.777-1.157s.581-.767.869-1.151a.3.3 0 0 0 .012-.4.316.316 0 0 0-.4-.052c-.154.068-.306.145-.465.2a8 8 0 0 1-1.915.384c-.206.019-.414.022-.649.034l.069-.277a1.55 1.55 0 0 0 .028-.689 1.05 1.05 0 0 0-.876-.822.99.99 0 0 0-1.023.391 1.25 1.25 0 0 0 .587 1.831c.081.022.157.054.252.087a5.5 5.5 0 0 1-1.1 1.237 2.5 2.5 0 0 1-.961.489 1.54 1.54 0 0 1-.7.048c.03-.08.053-.147.081-.211a2.94 2.94 0 0 0 .209-1.641 1.79 1.79 0 0 0-1.627-1.583 3.9 3.9 0 0 0-1.369.086 4.55 4.55 0 0 0-3.021 2.318 4.5 4.5 0 0 1-.56.777 8.6 8.6 0 0 1-1.261 1.152 6.7 6.7 0 0 1-1.938 1.063 2.3 2.3 0 0 1-.9.129.77.77 0 0 1-.744-.666 1.8 1.8 0 0 1-.018-.429 4 4 0 0 1 .558-1.693c.511-.9 1.029-1.791 1.544-2.686.036-.061.074-.12.114-.186l.15.022a10.9 10.9 0 0 0 3.993.019 7.2 7.2 0 0 0 2.517-.945 1.5 1.5 0 0 0 .2-.138.29.29 0 0 0 .058-.37.3.3 0 0 0-.359-.117.7.7 0 0 0-.126.07 6.3 6.3 0 0 1-1.855.8 9.8 9.8 0 0 1-3.6.212c-.212-.023-.42-.063-.655-.1.054-.1.09-.171.129-.24q.423-.739.849-1.478a1.3 1.3 0 0 0 .1-.191.28.28 0 0 0-.11-.336.3.3 0 0 0-.377.038 1 1 0 0 0-.118.181q-.481.831-.959 1.664c-.043.076-.089.151-.146.247-.371-.11-.734-.208-1.094-.325a10.66 10.66 0 0 0-4.987-.442 9 9 0 0 0-1.033.241.29.29 0 0 0-.218.389.3.3 0 0 0 .4.169c.1-.026.2-.065.3-.089a9.55 9.55 0 0 1 3.938-.072 17 17 0 0 1 1.909.519q.227.068.47.138c-.023.051-.037.087-.057.121q-.752 1.313-1.509 2.623a.7.7 0 0 1-.132.169 3.55 3.55 0 0 1-1.228.748 1.66 1.66 0 0 1-.775.112c.033-.083.06-.156.093-.227a2.94 2.94 0 0 0 .24-1.615 1.79 1.79 0 0 0-1.657-1.66 3.9 3.9 0 0 0-1.344.086 4.54 4.54 0 0 0-2.929 2.151 4.4 4.4 0 0 1-.626.818c-.358.357-.72.712-1.1 1.044a6.3 6.3 0 0 1-1.55 1.012 2.65 2.65 0 0 1-1.39.227 1.19 1.19 0 0 1-1.12-.964 3.2 3.2 0 0 1-.024-1.214 9.3 9.3 0 0 1 .632-2.207 13.5 13.5 0 0 1 1.809-3.022 34 34 0 0 1 4.571-4.842 2 2 0 0 0 .161-.145.3.3 0 0 0 .03-.357.29.29 0 0 0-.315-.124 2 2 0 0 0-.275.092 18.5 18.5 0 0 0-2.748 1.3 15.9 15.9 0 0 0-4.746 3.994.6.6 0 0 1-.089.075.4.4 0 0 1 0-.07 15.2 15.2 0 0 1 1.747-4.242.8.8 0 0 1 .269-.265 4 4 0 0 0 .519-.389.266.266 0 0 0 .029-.389.29.29 0 0 0-.39-.062 2 2 0 0 0-.188.149 1.46 1.46 0 0 1-.824.373 12 12 0 0 1-1.3.018c-1.337-.069-2.673-.165-4.009-.24a6.026 6.026 0 0 0-6.035 4 4.4 4.4 0 0 0-.326 1.708 1.86 1.86 0 0 0 1.569 1.908 3 3 0 0 0 .7.027 3.6 3.6 0 0 0 .664-.116.277.277 0 0 0 .194-.34.29.29 0 0 0-.327-.219c-.056.005-.11.029-.166.034a6 6 0 0 1-.769.059 1.255 1.255 0 0 1-1.254-1.24 3 3 0 0 1 .055-.809 5.41 5.41 0 0 1 3.6-4.14 6.2 6.2 0 0 1 2.532-.264q1.886.113 3.767.235a.7.7 0 0 1 .123.03q.002.037-.008.042c-.225.239-.456.475-.677.717a18 18 0 0 0-3.086 4.5c-.277.594-.6 1.17-.932 1.732a11.3 11.3 0 0 1-2.277 2.78 6.47 6.47 0 0 1-5.178 1.646 2.6 2.6 0 0 1-1.033-.31.95.95 0 0 1-.484-1.08 4 4 0 0 1 .188-.54.3.3 0 0 0-.119-.414.285.285 0 0 0-.4.143c-.09.177-.149.37-.224.554a1.86 1.86 0 0 0-.017.922m74.72-1.962a2.4 2.4 0 0 1 .738-.844 4.8 4.8 0 0 1 2.153-.912 1.5 1.5 0 0 1 .762.073.6.6 0 0 1 .432.6 1.65 1.65 0 0 1-.39 1.13 2.7 2.7 0 0 1-.551.5 3.6 3.6 0 0 1-1.742.58 1.78 1.78 0 0 1-1.3-.394.555.555 0 0 1-.102-.735Zm-3.391-3.278a20 20 0 0 1 2.2-3.317 9 9 0 0 1 1.27-1.279 2.95 2.95 0 0 1 1.9-.655 1.6 1.6 0 0 1 .449.074.646.646 0 0 1 .511.695 2.2 2.2 0 0 1-.12.63 4.4 4.4 0 0 1-1.558 2.087 9.4 9.4 0 0 1-2.744 1.385c-.564.187-1.144.326-1.718.483-.068.019-.14.025-.26.044.038-.079.053-.115.071-.149Zm-58.5 2.573a13.7 13.7 0 0 1-.634 2.4 3.6 3.6 0 0 1-.486.932.63.63 0 0 1-.405.289 1 1 0 0 1-.041-.272 7 7 0 0 1 .138-.895 13.7 13.7 0 0 1 1.351-3.138 9 9 0 0 1 .159-.269c.007-.012.023-.016.086-.056-.054.366-.104.688-.163 1.008Zm9.811 3.769a2.6 2.6 0 0 1-.7-.162 1.3 1.3 0 0 1-.861-.987 2.26 2.26 0 0 1 .106-1.436 3.9 3.9 0 0 1 2.056-2.014 6 6 0 0 0 .1.782 3 3 0 0 0 .3.751 3 3 0 0 0 .484.621 4 4 0 0 0 .643.5c.219.144.462.254.715.392a3.19 3.19 0 0 1-2.837 1.551Zm3.154-2.084a2.85 2.85 0 0 1-1.851-1.761 2.2 2.2 0 0 1-.076-.8c.007-.095.032-.168.145-.186a3.3 3.3 0 0 1 1.2-.015 1.13 1.13 0 0 1 .926.924 2.4 2.4 0 0 1-.338 1.836Zm12.933.5a3.51 3.51 0 0 1-2.007 1.526 2.48 2.48 0 0 1-1.522-.085 1.35 1.35 0 0 1-.924-1.183 2.7 2.7 0 0 1 .084-1.093.6.6 0 0 1 .1-.214 9 9 0 0 1 1.268-1.382 3.2 3.2 0 0 1 .8-.524 3.28 3.28 0 0 0 1.956 2.769c.082.047.169.085.249.126a.2.2 0 0 1 .002.054Zm.656-1.369a2.7 2.7 0 0 1-.312.8 3.4 3.4 0 0 1-1.757-1.547 1.38 1.38 0 0 1-.112-1.085c.132-.018.273-.042.416-.056a4 4 0 0 1 .625-.041 1.135 1.135 0 0 1 1.06.743 2.17 2.17 0 0 1 .084 1.18Zm3.386-1.416c-.085-.014-.164-.021-.241-.039a.607.607 0 0 1-.511-.677.43.43 0 0 1 .4-.457.5.5 0 0 1 .521.407 1.23 1.23 0 0 1-.164.761Zm12.94 9.018c-1.019 1.316-2.844 2.654-3.931 2.548a.52.52 0 0 1-.472-.29c-.469-.941.6-2.4 2.591-3.539a13.3 13.3 0 0 1 2.734-1.006q.37-.108.755-.224a24 24 0 0 1-1.671 2.505Zm27.307-4.572c-.257-.032-.308-.122-.178-.349a1.25 1.25 0 0 1 1-.622 4 4 0 0 1 .494 0 1.21 1.21 0 0 1-1.31.966Z" data-name="Path 6"/><path d="M23.813 2.179a.83.83 0 0 1 .187.548q-.009 4.748 0 9.5a.91.91 0 0 1-.216.654c-.167.191-.312.4-.46.61a.37.37 0 0 0-.019.415.33.33 0 0 0 .37.179.7.7 0 0 0 .264-.129c.552-.408 1.1-.823 1.648-1.236a.355.355 0 0 1 .536 0l1.591 1.2a1.4 1.4 0 0 0 .19.13.367.367 0 0 0 .547-.294.54.54 0 0 0-.094-.3q-.24-.356-.512-.688a.6.6 0 0 1-.131-.4q.006-2.837 0-5.674c0-.074.007-.147.01-.221l.042-.016 1.983 2.377c.071-.081.123-.137.172-.2q.837-1.006 1.675-2.01c.049-.059.083-.145.193-.155v5.455a2.2 2.2 0 0 1-.026.665 2.3 2.3 0 0 1-.382.546c-.087.118-.181.232-.261.354a.376.376 0 0 0 .036.488.386.386 0 0 0 .488.047c.052-.033.1-.073.149-.11q.8-.6 1.592-1.2a.354.354 0 0 1 .535 0l1.628 1.225a1 1 0 0 0 .173.114.36.36 0 0 0 .374-.033.34.34 0 0 0 .152-.362.6.6 0 0 0-.1-.226 13 13 0 0 0-.459-.612.75.75 0 0 1-.173-.505q.009-4.795 0-9.589a.83.83 0 0 1 .184-.548c.385-.493.756-1 1.13-1.5a.39.39 0 0 0-.1-.643.1.1 0 0 1-.024-.037h-.233a1 1 0 0 0-.115.072 2.3 2.3 0 0 1-1.606.467 3 3 0 0 1-1.619-.4.64.64 0 0 0-.419-.1c-.209.021-.31.142-.259.344a.36.36 0 0 1-.094.359q-1.276 1.389-2.555 2.777a1 1 0 0 1-.054.036q-.074-.073-.153-.156L27.184.774a.4.4 0 0 1-.12-.418.24.24 0 0 0-.218-.314.58.58 0 0 0-.424.07 3.04 3.04 0 0 1-1.659.419 5 5 0 0 1-.781-.077 1.5 1.5 0 0 1-.733-.323c-.064-.053-.14-.092-.209-.139h-.232c-.308.254-.324.41-.079.736.359.49.715.976 1.084 1.451m1.832.3A.206.206 0 0 1 26 2.335l3.755 3.868 3.76-3.868a.206.206 0 0 1 .355.144v9.392a.206.206 0 1 1-.413 0V2.988l-3.553 3.655a.2.2 0 0 1-.148.063.2.2 0 0 1-.148-.063L26.06 2.988v8.882a.206.206 0 0 1-.413 0Z" data-name="Path 7"/><path d="M38.344 1.494a.65.65 0 0 1 .145.445c0 2.47-.008 4.941 0 7.411a5 5 0 0 0 .115 1.078 4.658 4.658 0 0 0 9.189-.622c.032-.453.027-.91.027-1.365V1.91a.6.6 0 0 1 .134-.4c.161-.2.307-.406.46-.61a1 1 0 0 0 .1-.153.38.38 0 0 0-.076-.446.364.364 0 0 0-.448-.054 2 2 0 0 0-.17.12l-1.591 1.2a.37.37 0 0 1-.557 0q-.787-.59-1.573-1.183a2 2 0 0 0-.188-.133.36.36 0 0 0-.448.056.37.37 0 0 0-.063.467 1.4 1.4 0 0 0 .107.15c.148.2.289.4.446.592a.58.58 0 0 1 .135.4c-.005 1.328 0 2.656 0 3.984v3.266q.001.394-.006.787a.92.92 0 0 1-.609.85.944.944 0 0 1-1.263-.926c.013-2.671.006-5.343 0-8.013a.48.48 0 0 1 .11-.317q.256-.33.5-.667a.8.8 0 0 0 .1-.178.34.34 0 0 0-.1-.4.34.34 0 0 0-.4-.068 1.2 1.2 0 0 0-.193.126c-.525.393-1.055.781-1.57 1.186a.44.44 0 0 1-.618.006c-.517-.4-1.046-.793-1.571-1.187a1.2 1.2 0 0 0-.192-.127.37.37 0 0 0-.5.186.38.38 0 0 0 .061.413c.17.214.331.442.507.657m1.8 7.844V2.476a.207.207 0 0 1 .413 0v7.181a2.6 2.6 0 0 0 5.2 0V2.476a.206.206 0 1 1 .413 0v7.181a3.012 3.012 0 1 1-6.024 0Z" data-name="Path 8"/><path d="M50.491.705a9 9 0 0 0-.666-.5.379.379 0 0 0-.533.522c.041.066.09.125.137.188q.584.776 1.167 1.555a.363.363 0 0 1 0 .537q-.6.807-1.208 1.613a1.3 1.3 0 0 0-.128.191.35.35 0 0 0 .044.391.34.34 0 0 0 .369.134.7.7 0 0 0 .223-.113q.338-.243.666-.5a.53.53 0 0 1 .36-.119c.6.006 1.2 0 1.807 0 .075 0 .15.007.245.012v7.866a.5.5 0 0 1-.112.34c-.164.205-.317.418-.474.628a1 1 0 0 0-.105.152.378.378 0 0 0 .522.511 2 2 0 0 0 .188-.135l1.573-1.184a.37.37 0 0 1 .538 0l1.61 1.211a1.4 1.4 0 0 0 .172.119.37.37 0 0 0 .549-.292.56.56 0 0 0-.107-.317 12 12 0 0 0-.525-.705.45.45 0 0 1-.1-.3V4.798a2 2 0 0 1 .022-.2h.265c.51 0 1.019.015 1.528-.005a1 1 0 0 1 .781.26 5 5 0 0 0 .554.418.378.378 0 0 0 .527-.527c-.036-.059-.08-.113-.121-.169q-.591-.787-1.18-1.575a.37.37 0 0 1 0-.54q.6-.806 1.207-1.611a1.3 1.3 0 0 0 .118-.171.377.377 0 0 0-.436-.538.6.6 0 0 0-.18.1c-.2.145-.4.288-.591.447a.78.78 0 0 1-.546.188q-3.821-.01-7.642 0a.76.76 0 0 1-.518-.17m1.031 1.825h6.637a.206.206 0 1 1 0 .413h-3.11v8.926a.206.206 0 1 1-.413 0V2.943h-3.112a.206.206 0 1 1 0-.413Z" data-name="Path 9"/><path d="M61.389 4.62a1.4 1.4 0 0 0-.119.171.37.37 0 0 0 .066.448.39.39 0 0 0 .45.062 1 1 0 0 0 .132-.092c.217-.161.437-.32.647-.488a.5.5 0 0 1 .338-.118h1.852c.067 0 .134.009.218.016v7.862a.5.5 0 0 1-.114.339c-.163.206-.316.418-.473.629a1 1 0 0 0-.095.131.37.37 0 0 0 .052.468.37.37 0 0 0 .467.057 2 2 0 0 0 .169-.123q.8-.6 1.592-1.2a.37.37 0 0 1 .538 0q.806.6 1.61 1.211a1.2 1.2 0 0 0 .192.126.37.37 0 0 0 .491-.174.385.385 0 0 0-.058-.432c-.167-.223-.326-.451-.5-.665a.62.62 0 0 1-.141-.423q.006-3.774 0-7.55v-.284h.268c.494 0 .989.019 1.482-.006a1.14 1.14 0 0 1 .905.3 4 4 0 0 0 .5.375.378.378 0 0 0 .527-.528c-.032-.051-.071-.1-.108-.15l-1.195-1.593a.37.37 0 0 1 0-.539q.612-.813 1.222-1.63a.8.8 0 0 0 .129-.218.36.36 0 0 0-.322-.478.57.57 0 0 0-.3.093 7 7 0 0 0-.612.458.8.8 0 0 1-.569.188q-3.776-.01-7.551 0a.9.9 0 0 1-.652-.217 7 7 0 0 0-.61-.46.38.38 0 0 0-.489.036.37.37 0 0 0-.045.487 2 2 0 0 0 .1.13l1.208 1.611a.37.37 0 0 1 0 .54q-.599.824-1.202 1.63m2.134-2.089h6.637a.206.206 0 1 1 0 .413h-3.112v8.926a.207.207 0 0 1-.413 0V2.944h-3.112a.206.206 0 1 1 0-.413" data-name="Path 10"/></g></svg>